name p9_grf_mean_speed_1.4
datacolumns 13
datarows 34
range 0.0000000000 0.3300000000
endheader
time	grf_x_l_mean	grf_x_l_var	grf_y_l_mean	grf_y_l_var	grf_z_l_mean	grf_z_l_var	grf_x_r_mean	grf_x_r_var	grf_y_r_mean	grf_y_r_var	grf_z_r_mean	grf_z_r_var
0.0000000000	123.2760505213	1.0000000000	761.0541799091	1.0000000000	0.0000000000	0.0000000000	11.7339531005	1.0000000000	11.2529653430	1.0000000000	0.0000000000	0.0000000000
0.0100000000	133.2969716461	1.0000000000	746.1496464777	1.0000000000	0.0000000000	0.0000000000	19.6591243556	1.0000000000	48.5512818315	1.0000000000	0.0000000000	0.0000000000
0.0200000000	143.7836563767	1.0000000000	722.0199085486	1.0000000000	0.0000000000	0.0000000000	26.0156188352	1.0000000000	110.1869668324	1.0000000000	0.0000000000	0.0000000000
0.0300000000	153.2352944158	1.0000000000	686.6061222339	1.0000000000	0.0000000000	0.0000000000	22.9073276011	1.0000000000	196.0967721186	1.0000000000	0.0000000000	0.0000000000
0.0400000000	158.8657465352	1.0000000000	638.3784223275	1.0000000000	0.0000000000	0.0000000000	4.5796160967	1.0000000000	301.0493145682	1.0000000000	0.0000000000	0.0000000000
0.0500000000	159.3580282320	1.0000000000	577.0788559442	1.0000000000	0.0000000000	0.0000000000	-25.3343734841	1.0000000000	416.5529581671	1.0000000000	0.0000000000	0.0000000000
0.0600000000	153.9230431627	1.0000000000	504.4240876893	1.0000000000	0.0000000000	0.0000000000	-58.7074155860	1.0000000000	530.4310818338	1.0000000000	0.0000000000	0.0000000000
0.0700000000	141.4909199150	1.0000000000	423.3486091334	1.0000000000	0.0000000000	0.0000000000	-90.7506097896	1.0000000000	629.6886822049	1.0000000000	0.0000000000	0.0000000000
0.0800000000	121.9098516034	1.0000000000	338.2306554127	1.0000000000	0.0000000000	0.0000000000	-117.4016321658	1.0000000000	707.2832405917	1.0000000000	0.0000000000	0.0000000000
0.0900000000	97.8582570112	1.0000000000	255.2967006801	1.0000000000	0.0000000000	0.0000000000	-135.3087628429	1.0000000000	762.4071060408	1.0000000000	0.0000000000	0.0000000000
0.1000000000	72.1076507581	1.0000000000	180.5940494537	1.0000000000	0.0000000000	0.0000000000	-144.6113225695	1.0000000000	797.4767855946	1.0000000000	0.0000000000	0.0000000000
0.1100000000	47.5445618390	1.0000000000	117.8243205397	1.0000000000	0.0000000000	0.0000000000	-146.9136207372	1.0000000000	816.5118825388	1.0000000000	0.0000000000	0.0000000000
0.1200000000	28.1743648125	1.0000000000	68.7339247473	1.0000000000	0.0000000000	0.0000000000	-143.3883026798	1.0000000000	824.5109373889	1.0000000000	0.0000000000	0.0000000000
0.1300000000	14.9868017808	1.0000000000	34.0840391440	1.0000000000	0.0000000000	0.0000000000	-135.9191770311	1.0000000000	826.1006449653	1.0000000000	0.0000000000	0.0000000000
0.1400000000	7.0069508050	1.0000000000	12.7337132439	1.0000000000	0.0000000000	0.0000000000	-126.7544716150	1.0000000000	823.1129489459	1.0000000000	0.0000000000	0.0000000000
0.1500000000	3.1779057316	1.0000000000	1.8086923702	1.0000000000	0.0000000000	0.0000000000	-115.4032217409	1.0000000000	814.8682351101	1.0000000000	0.0000000000	0.0000000000
0.1600000000	0.0000000000	1.0000000000	0.0000000000	1.0000000000	0.0000000000	0.0000000000	-102.5243780048	1.0000000000	800.6346681278	1.0000000000	0.0000000000	0.0000000000
0.1700000000	0.0000000000	1.0000000000	0.0000000000	1.0000000000	0.0000000000	0.0000000000	-89.8648210705	1.0000000000	780.4452755113	1.0000000000	0.0000000000	0.0000000000
0.1800000000	0.0000000000	1.0000000000	0.0000000000	1.0000000000	0.0000000000	0.0000000000	-77.7579673717	1.0000000000	754.4854482766	1.0000000000	0.0000000000	0.0000000000
0.1900000000	3.5842753376	1.0000000000	0.1408985311	1.0000000000	0.0000000000	0.0000000000	-65.8624517804	1.0000000000	723.3904573707	1.0000000000	0.0000000000	0.0000000000
0.2000000000	3.8480306861	1.0000000000	0.9184537613	1.0000000000	0.0000000000	0.0000000000	-55.5062738454	1.0000000000	688.8647228318	1.0000000000	0.0000000000	0.0000000000
0.2100000000	3.9420969998	1.0000000000	1.2066841743	1.0000000000	0.0000000000	0.0000000000	-46.6363013193	1.0000000000	653.2759041235	1.0000000000	0.0000000000	0.0000000000
0.2200000000	4.0434565622	1.0000000000	1.1520408165	1.0000000000	0.0000000000	0.0000000000	-38.7261376829	1.0000000000	619.4898489781	1.0000000000	0.0000000000	0.0000000000
0.2300000000	3.6416795795	1.0000000000	0.8294859020	1.0000000000	0.0000000000	0.0000000000	-32.0834142466	1.0000000000	589.7445948219	1.0000000000	0.0000000000	0.0000000000
0.2400000000	3.0329828768	1.0000000000	0.3969673479	1.0000000000	0.0000000000	0.0000000000	-26.5351128056	1.0000000000	564.9673736475	1.0000000000	0.0000000000	0.0000000000
0.2500000000	0.0000000000	1.0000000000	0.0000000000	1.0000000000	0.0000000000	0.0000000000	-21.1880013856	1.0000000000	545.6219283396	1.0000000000	0.0000000000	0.0000000000
0.2600000000	0.0000000000	1.0000000000	0.0000000000	1.0000000000	0.0000000000	0.0000000000	-16.5229303004	1.0000000000	532.3513973522	1.0000000000	0.0000000000	0.0000000000
0.2700000000	0.0000000000	1.0000000000	0.0000000000	1.0000000000	0.0000000000	0.0000000000	-12.5347069439	1.0000000000	525.2360182715	1.0000000000	0.0000000000	0.0000000000
0.2800000000	0.0000000000	1.0000000000	0.0000000000	1.0000000000	0.0000000000	0.0000000000	-8.4778097936	1.0000000000	523.1206984941	1.0000000000	0.0000000000	0.0000000000
0.2900000000	0.0000000000	1.0000000000	0.0000000000	1.0000000000	0.0000000000	0.0000000000	-4.3414925758	1.0000000000	524.4751299949	1.0000000000	0.0000000000	0.0000000000
0.3000000000	0.0000000000	1.0000000000	0.0000000000	1.0000000000	0.0000000000	0.0000000000	-0.3342659273	1.0000000000	528.6107542248	1.0000000000	0.0000000000	0.0000000000
0.3100000000	0.0000000000	1.0000000000	0.0000000000	1.0000000000	0.0000000000	0.0000000000	4.1238410074	1.0000000000	535.6425861707	1.0000000000	0.0000000000	0.0000000000
0.3200000000	0.0000000000	1.0000000000	0.0000000000	1.0000000000	0.0000000000	0.0000000000	9.0404100284	1.0000000000	545.1048117974	1.0000000000	0.0000000000	0.0000000000
0.3300000000	0.0000000000	1.0000000000	0.0000000000	1.0000000000	0.0000000000	0.0000000000	14.1564305826	1.0000000000	556.1067484403	1.0000000000	0.0000000000	0.0000000000
